<svg xmlns="http://www.w3.org/2000/svg" viewBox="0 0 62 62" fill="none"><path d="M31 61c16.569 0 30-13.431 30-30C61 14.431 47.569 1 31 1 14.431 1 1 14.431 1 31c0 16.569 13.431 30 30 30z" stroke="#FD3A57" stroke-dasharray="5 5"/><path d="M36.651 43.194l-.087-.035H20.437c-1.595 0-2.937-1.38-2.937-3.144v-21.37c0-1.765 1.342-3.145 2.937-3.145h21.121c1.595 0 2.937 1.38 2.937 3.145V38.31l.001-.002v7.958l-.113-.044a4479.202 4479.202 0 0 0-7.732-3.028z" stroke="#FD3A57"/><path d="M40.372 35.542a.5.5 0 1 0-.651-.76l.65.76zm-18.095-.76a.5.5 0 0 0-.651.76l.65-.76zm17.444 0c-1.027.88-4.278 2.737-8.722 2.737v1c4.699 0 8.178-1.953 9.373-2.977l-.651-.76zm-8.722 2.737c-4.444 0-7.695-1.856-8.722-2.736l-.651.759c1.195 1.024 4.674 2.977 9.373 2.977v-1z" fill="#FD3A57"/></svg>