<svg width="24" height="24" fill="none" xmlns="http://www.w3.org/2000/svg"><path d="M16.5 12A4.5 4.5 0 0 0 14 7.97v2.21l2.45 2.45c.03-.2.05-.41.05-.63zm2.5 0c0 .94-.2 1.82-.54 2.64l1.51 1.51A8.796 8.796 0 0 0 21 12c0-4.062-2.693-7.493-6.394-8.61a.475.475 0 0 0-.606.466v1.061c0 .221.146.415.354.489A7.005 7.005 0 0 1 19 12zM4.905 3.635a.898.898 0 0 0-1.27 1.27L7.73 9H4a1 1 0 0 0-1 1v4a1 1 0 0 0 1 1h2.793a.5.5 0 0 1 .353.146l4.256 4.256a.35.35 0 0 0 .598-.247V13.27l4.25 4.25a7.031 7.031 0 0 1-1.898 1.063.527.527 0 0 0-.352.489v1.063c0 .32.297.559.604.466a9.074 9.074 0 0 0 3.086-1.651l1.406 1.413a.897.897 0 1 0 1.27-1.267L12 10.73 4.905 3.635zM12 4.845a.35.35 0 0 0-.598-.248L9.91 6.09 12 8.18V4.845z" fill="#fff"/></svg>