<svg width="24" height="24" fill="none" xmlns="http://www.w3.org/2000/svg"><path d="M4 9a1 1 0 0 0-1 1v4a1 1 0 0 0 1 1h2.793a.5.5 0 0 1 .353.146l4.256 4.256a.35.35 0 0 0 .598-.247V4.845a.35.35 0 0 0-.598-.247L7.146 8.854A.5.5 0 0 1 6.793 9H4zm12.5 3A4.5 4.5 0 0 0 14 7.97v8.05c1.48-.73 2.5-2.25 2.5-4.02zm-1.894-8.61a.475.475 0 0 0-.606.466v1.061c0 .221.146.415.354.489A7.005 7.005 0 0 1 19 12a7.005 7.005 0 0 1-4.646 6.594.525.525 0 0 0-.354.489v1.06c0 .322.299.56.606.467C18.307 19.493 21 16.062 21 12c0-4.062-2.693-7.493-6.394-8.61z" fill="#fff"/></svg>