<?xml version="1.0" encoding="UTF-8"?>
<svg width="21px" height="15px" viewBox="0 0 21 15" version="1.1" xmlns="http://www.w3.org/2000/svg" xmlns:xlink="http://www.w3.org/1999/xlink">
    <!-- Generator: Sketch 49.3 (51167) - http://www.bohemiancoding.com/sketch -->
    <title>FORT_Allies</title>
    <desc>Created with Sketch.</desc>
    <defs></defs>
    <g id="Sign-Up" stroke="none" stroke-width="1" fill="none" fill-rule="evenodd">
        <g id="Sign-Up---Subscriptions-[Student---2]-Copy-8" transform="translate(-695.000000, -350.000000)" fill="#4A4A4A">
            <g id="Group-4" transform="translate(695.000000, 346.000000)">
                <g id="FORT_Allies">
                    <path d="M14.2105263,10.5864662 C15.7831579,10.5864662 17.0431579,9.25654135 17.0431579,7.60902256 C17.0431579,5.96150376 15.7831579,4.63157895 14.2105263,4.63157895 C12.6378947,4.63157895 11.3684211,5.96150376 11.3684211,7.60902256 C11.3684211,9.25654135 12.6378947,10.5864662 14.2105263,10.5864662 L14.2105263,10.5864662 Z M6.63157895,10.5864662 C8.20421053,10.5864662 9.46421053,9.25654135 9.46421053,7.60902256 C9.46421053,5.96150376 8.20421053,4.63157895 6.63157895,4.63157895 C5.05894737,4.63157895 3.78947368,5.96150376 3.78947368,7.60902256 C3.78947368,9.25654135 5.05894737,10.5864662 6.63157895,10.5864662 L6.63157895,10.5864662 Z M6.63157895,12.5714286 C4.42421053,12.5714286 0,13.7326316 0,16.0451128 L0,18.5263158 L13.2631579,18.5263158 L13.2631579,16.0451128 C13.2631579,13.7326316 8.83894737,12.5714286 6.63157895,12.5714286 L6.63157895,12.5714286 Z M14.2105263,12.5714286 C13.9357895,12.5714286 13.6231579,12.5912782 13.2915789,12.6210526 C14.3905263,13.4547368 15.1578947,14.5762406 15.1578947,16.0451128 L15.1578947,18.5263158 L20.8421053,18.5263158 L20.8421053,16.0451128 C20.8421053,13.7326316 16.4178947,12.5714286 14.2105263,12.5714286 L14.2105263,12.5714286 Z" id="Shape"></path>
                </g>
            </g>
        </g>
    </g>
</svg>