<?xml version="1.0" encoding="utf-8"?>
<!-- Generator: Adobe Illustrator 18.1.1, SVG Export Plug-In . SVG Version: 6.00 Build 0)  -->
<!DOCTYPE svg PUBLIC "-//W3C//DTD SVG 1.1//EN" "http://www.w3.org/Graphics/SVG/1.1/DTD/svg11.dtd">
<svg version="1.1" id="Layer_1" xmlns="http://www.w3.org/2000/svg" xmlns:xlink="http://www.w3.org/1999/xlink" x="0px" y="0px"
	 viewBox="-387 388 17 17" enable-background="new -387 388 17 17" xml:space="preserve">
<path id="path-1" fill="#B2BAC3" d="M-372.2,405h-12.6c-1.2,0-2.2-1-2.2-2.3v-10.7c0-1.3,1-2.4,2.2-2.4h1.5v-0.4
	c0-0.6,0.5-1.2,1.1-1.2c0.6,0,1.1,0.5,1.1,1.2v0.4h5.2v-0.4c0-0.6,0.5-1.2,1.1-1.2c0.6,0,1.1,0.5,1.1,1.2v0.4h1.5
	c1.2,0,2.2,1.1,2.2,2.4v10.7C-370,404-371,405-372.2,405z M-372.2,391.9h-1.5v0.4c0,0.6-0.5,1.2-1.1,1.2c-0.6,0-1.1-0.5-1.1-1.2
	v-0.4h-5.2v0.4c0,0.6-0.5,1.2-1.1,1.2c-0.6,0-1.1-0.5-1.1-1.2v-0.4h-1.5v10.8h12.6V391.9z M-381.1,397.3h-2.2V395h2.2V397.3z
	 M-381.1,401.1h-2.2v-2.3h2.2V401.1z M-377.4,397.3h-2.2V395h2.2V397.3z M-377.4,401.1h-2.2v-2.3h2.2V401.1z M-373.7,397.3h-2.2V395
	h2.2V397.3z M-373.7,401.1h-2.2v-2.3h2.2V401.1z"/>
</svg>
