<?xml version="1.0" encoding="UTF-8"?>
<svg width="147px" height="23px" viewBox="0 0 147 23" version="1.1" xmlns="http://www.w3.org/2000/svg" xmlns:xlink="http://www.w3.org/1999/xlink">
    <!-- Generator: Sketch 48.2 (47327) - http://www.bohemiancoding.com/sketch -->
    <title>Stars</title>
    <desc>Created with Sketch.</desc>
    <defs></defs>
    <g id="Messaging---Zero-[Adult]-Copy-2" stroke="none" stroke-width="1" fill="none" fill-rule="evenodd" transform="translate(-115.000000, -198.000000)">
        <g id="Stars" transform="translate(188.500000, 209.500000) rotate(-360.000000) translate(-188.500000, -209.500000) translate(115.000000, 198.000000)" fill="#F3AF4F">
            <polygon id="Star" points="12 17.4341661 4.58359214 23 7.54502467 14.1726719 1.19793064e-13 8.78521826 9.24667383 8.89546336 12 0 14.7533262 8.89546336 24 8.78521826 16.4549753 14.1726719 19.4164079 23"></polygon>
            <polygon id="Star-Copy" points="43 17.4341661 35.5835921 23 38.5450247 14.1726719 31 8.78521826 40.2466738 8.89546336 43 0 45.7533262 8.89546336 55 8.78521826 47.4549753 14.1726719 50.4164079 23"></polygon>
            <polygon id="Star-Copy-2" points="73 17.4341661 65.5835921 23 68.5450247 14.1726719 61 8.78521826 70.2466738 8.89546336 73 0 75.7533262 8.89546336 85 8.78521826 77.4549753 14.1726719 80.4164079 23"></polygon>
            <polygon id="Star-Copy-3" points="104 17.4341661 96.5835921 23 99.5450247 14.1726719 92 8.78521826 101.246674 8.89546336 104 0 106.753326 8.89546336 116 8.78521826 108.454975 14.1726719 111.416408 23"></polygon>
            <polygon id="Star-Copy-4" points="135 17.4341661 127.583592 23 130.545025 14.1726719 123 8.78521826 132.246674 8.89546336 135 0 137.753326 8.89546336 147 8.78521826 139.454975 14.1726719 142.416408 23"></polygon>
        </g>
    </g>
</svg>