<?xml version="1.0" encoding="UTF-8"?>
<svg width="29px" height="28px" viewBox="0 0 29 28" version="1.1" xmlns="http://www.w3.org/2000/svg" xmlns:xlink="http://www.w3.org/1999/xlink">
    <!-- Generator: Sketch 46.2 (44496) - http://www.bohemiancoding.com/sketch -->
    <title>Video</title>
    <desc>Created with Sketch.</desc>
    <defs>
        <linearGradient x1="1.44424438%" y1="0%" x2="100%" y2="100%" id="linearGradient-1">
            <stop stop-color="#17EAD9" offset="0%"/>
            <stop stop-color="#6078EA" offset="100%"/>
        </linearGradient>
    </defs>
    <g id="[New-Icons]" stroke="none" stroke-width="1" fill="none" fill-rule="evenodd">
        <g id="Video" fill="url(#linearGradient-1)">
            <g id="Training/Material/Video">
                <g id="ic_play_circle_outline-copy">
                    <path d="M11.6666667,19.25 L18.6666667,14 L11.6666667,8.75 L11.6666667,19.25 L11.6666667,19.25 Z M14,2.33333333 C7.56,2.33333333 2.33333333,7.56 2.33333333,14 C2.33333333,20.44 7.56,25.6666667 14,25.6666667 C20.44,25.6666667 25.6666667,20.44 25.6666667,14 C25.6666667,7.56 20.44,2.33333333 14,2.33333333 L14,2.33333333 Z M14,23.3333333 C8.855,23.3333333 4.66666667,19.145 4.66666667,14 C4.66666667,8.855 8.855,4.66666667 14,4.66666667 C19.145,4.66666667 23.3333333,8.855 23.3333333,14 C23.3333333,19.145 19.145,23.3333333 14,23.3333333 L14,23.3333333 Z" id="Shape"/>
                </g>
            </g>
        </g>
    </g>
</svg>