<?xml version="1.0" encoding="UTF-8"?>
<svg width="24px" height="14px" viewBox="0 0 24 14" version="1.1" xmlns="http://www.w3.org/2000/svg" xmlns:xlink="http://www.w3.org/1999/xlink">
    <!-- Generator: Sketch 47.1 (45422) - http://www.bohemiancoding.com/sketch -->
    <title>Allies</title>
    <desc>Created with Sketch.</desc>
    <defs>
        <linearGradient x1="100%" y1="100%" x2="12.4280533%" y2="-18.0114352%" id="linearGradient-1">
            <stop stop-color="#08AEEA" offset="0%"></stop>
            <stop stop-color="#2AF598" offset="100%"></stop>
        </linearGradient>
    </defs>
    <g id="[New-Icons]" stroke="none" stroke-width="1" fill="none" fill-rule="evenodd">
        <g id="Allies" transform="translate(0.000000, -5.000000)" fill="url(#linearGradient-1)">
            <path d="M16.0991736,11.012987 C17.8003306,11.012987 19.1633058,9.69038961 19.1633058,8.05194805 C19.1633058,6.41350649 17.8003306,5.09090909 16.0991736,5.09090909 C14.3980165,5.09090909 13.0247934,6.41350649 13.0247934,8.05194805 C13.0247934,9.69038961 14.3980165,11.012987 16.0991736,11.012987 L16.0991736,11.012987 Z M7.90082645,11.012987 C9.60198347,11.012987 10.9649587,9.69038961 10.9649587,8.05194805 C10.9649587,6.41350649 9.60198347,5.09090909 7.90082645,5.09090909 C6.19966942,5.09090909 4.82644628,6.41350649 4.82644628,8.05194805 C4.82644628,9.69038961 6.19966942,11.012987 7.90082645,11.012987 L7.90082645,11.012987 Z M7.90082645,12.987013 C5.51305785,12.987013 0.727272727,14.1418182 0.727272727,16.4415584 L0.727272727,18.9090909 L15.0743802,18.9090909 L15.0743802,16.4415584 C15.0743802,14.1418182 10.288595,12.987013 7.90082645,12.987013 L7.90082645,12.987013 Z M16.0991736,12.987013 C15.8019835,12.987013 15.4638017,13.0067532 15.105124,13.0363636 C16.2938843,13.8654545 17.1239669,14.9807792 17.1239669,16.4415584 L17.1239669,18.9090909 L23.2727273,18.9090909 L23.2727273,16.4415584 C23.2727273,14.1418182 18.4869421,12.987013 16.0991736,12.987013 L16.0991736,12.987013 Z" id="Shape"></path>
        </g>
    </g>
</svg>