<?xml version="1.0" encoding="UTF-8" standalone="no"?>
<svg width="57px" height="48px" viewBox="0 0 57 48" version="1.1" xmlns="http://www.w3.org/2000/svg" xmlns:xlink="http://www.w3.org/1999/xlink">
    <title>Turn Webcam On</title>
    <defs></defs>
    <g id="Page-1" stroke="none" stroke-width="1" fill="none" fill-rule="evenodd" stroke-linecap="round">
        <g id="Group-2" transform="translate(1.000000, 1.000000)" stroke="#FFFFFF" stroke-width="2">
            <g id="Movie-Camera" transform="translate(0.000000, 6.000000)">
                <path d="M39.693,33 L2.307,33 C1.033,33 0,31.967 0,30.693 L0,5.307 C0,4.033 1.033,3 2.307,3 L39.693,3 C40.967,3 42,4.033 42,5.307 L42,30.693 C42,31.967 40.967,33 39.693,33 L39.693,33 Z" id="Stroke-2"></path>
                <path d="M51.074,33.188 L42,29 L42,7 L51.074,2.812 C52.907,1.966 55,3.305 55,5.324 L55,30.676 C55,32.695 52.907,34.034 51.074,33.188 L51.074,33.188 Z" id="Stroke-4"></path>
            </g>
            <path d="M0.5,45.5 L45.0449219,0.95507884" id="Line-Copy" stroke-linejoin="round"></path>
        </g>
    </g>
</svg>