<?xml version="1.0" encoding="UTF-8"?>
<svg width="29px" height="28px" viewBox="0 0 29 28" version="1.1" xmlns="http://www.w3.org/2000/svg" xmlns:xlink="http://www.w3.org/1999/xlink">
    <!-- Generator: Sketch 46.2 (44496) - http://www.bohemiancoding.com/sketch -->
    <title>PDF</title>
    <desc>Created with Sketch.</desc>
    <defs>
        <radialGradient cx="8.53872329%" cy="-38.379229%" fx="8.53872329%" fy="-38.379229%" r="176.481775%" gradientTransform="translate(0.085387,-0.383792),scale(1.000000,0.800000),rotate(65.830166),translate(-0.085387,0.383792)" id="radialGradient-1">
            <stop stop-color="#9761FA" offset="0%"></stop>
            <stop stop-color="#F71C7A" offset="100%"></stop>
        </radialGradient>
    </defs>
    <g id="[New-Icons]" stroke="none" stroke-width="1" fill="none" fill-rule="evenodd">
        <g id="PDF">
            <g id="ic_description" transform="translate(1.000000, 0.000000)">
                <g id="Icon-24px">
                    <polygon id="Shape" points="0 0 28 0 28 28 0 28"></polygon>
                    <path d="M16.3333333,2.33333333 L7,2.33333333 C5.71666667,2.33333333 4.67833333,3.38333333 4.67833333,4.66666667 L4.66666667,23.3333333 C4.66666667,24.6166667 5.705,25.6666667 6.98833333,25.6666667 L21,25.6666667 C22.2833333,25.6666667 23.3333333,24.6166667 23.3333333,23.3333333 L23.3333333,9.33333333 L16.3333333,2.33333333 L16.3333333,2.33333333 Z M18.6666667,21 L9.33333333,21 L9.33333333,18.6666667 L18.6666667,18.6666667 L18.6666667,21 L18.6666667,21 Z M18.6666667,16.3333333 L9.33333333,16.3333333 L9.33333333,14 L18.6666667,14 L18.6666667,16.3333333 L18.6666667,16.3333333 Z M15.1666667,10.5 L15.1666667,4.08333333 L21.5833333,10.5 L15.1666667,10.5 L15.1666667,10.5 Z" id="Shape" fill="url(#radialGradient-1)"></path>
                </g>
            </g>
        </g>
    </g>
</svg>