<?xml version="1.0" encoding="utf-8"?>
<!-- Generator: Adobe Illustrator 18.1.1, SVG Export Plug-In . SVG Version: 6.00 Build 0)  -->
<!DOCTYPE svg PUBLIC "-//W3C//DTD SVG 1.1//EN" "http://www.w3.org/Graphics/SVG/1.1/DTD/svg11.dtd">
<svg version="1.1" id="YouTube_Logo" xmlns="http://www.w3.org/2000/svg" xmlns:xlink="http://www.w3.org/1999/xlink" x="0px"
	 y="0px" viewBox="0 0 501.0233765 209.0771942" enable-background="new 0 0 501.0233765 209.0771942" xml:space="preserve">
<linearGradient id="lozenge_1_" gradientUnits="userSpaceOnUse" x1="351.7187195" y1="-3.637979e-12" x2="351.7187195" y2="209.0771942">
	<stop  offset="0" style="stop-color:#E32E28"/>
	<stop  offset="1" style="stop-color:#BE2126"/>
</linearGradient>
<path id="lozenge_2_" fill="url(#lozenge_1_)" d="M498.0409851,45.1040001c0,0-2.9179993-20.4848003-11.8710938-29.5063
	C474.8163757,3.7588,462.0858765,3.6991999,456.25,3.0067999C414.4647827,0,351.7851868,0,351.7851868,0h-0.1308899
	c0,0-62.6816101,0-104.4668121,3.0067999C241.3495789,3.6991999,228.625,3.7588,217.2675934,15.5977001
	c-8.9531097,9.0214996-11.8672028,29.5063-11.8672028,29.5063s-2.9862976,24.0546989-2.9862976,48.1117973v22.552803
	c0,24.0547028,2.9862976,48.1092987,2.9862976,48.1092987s2.914093,20.4844055,11.8672028,29.5059052
	c11.3574066,11.8417969,26.281189,11.464798,32.9257965,12.7050934
	c23.8886108,2.2832031,101.5253906,2.9882965,101.5253906,2.9882965s62.7460022-0.0937958,104.5312195-3.0995941
	c5.8358765-0.6934052,18.5663757-0.7519989,29.9198914-12.5937958c8.9530945-9.0214996,11.8710938-29.5059052,11.8710938-29.5059052
	s2.9823914-24.0545959,2.9823914-48.1092987v-22.552803C501.0233765,69.158699,498.0409851,45.1040001,498.0409851,45.1040001z"/>
<g id="You">
	<path id="u_2_" d="M187,169.1963043h-19v-11c-7.2031097,8.2558899-13.308609,12.4257965-19.9648132,12.4257965
		c-5.8399048,0-9.8955994-2.7548981-11.9257965-7.7324066C134.875,159.8632965,134,155.1376953,134,148.1963043V68.1962967h19
		v75.0000076c0,4.2422028,0,6,0,7c0.4433899,2.8065948,1.6347809,3.8320007,4.0507812,3.8320007
		c3.6367035,0,6.9277039-3.1601105,10.9492188-8.8320007V68.1962967h19V169.1963043z"/>
	<path id="o_2_" d="M120,101.1962967c0-10.7934952-2.1679993-18.8983994-6-24c-5.0615082-6.9081955-13-9.7362976-21-9.7362976
		c-9.0552139,0-15.9458084,2.8281021-21,9.7362976c-3.8931122,5.1016006-5.9814072,13.2944031-5.9814072,24.0879059L66,137.1963043
		c0,10.7323914,1.8573914,18.1483917,5.7504883,23.2012024C76.8046875,167.2841949,85,170.9326019,93,170.9326019
		s16.3388901-3.648407,21.4003906-10.5350952C118.2323914,155.344696,120,147.9286957,120,137.1963043V101.1962967z
		 M101,139.1963043c1,10-2.1016083,14.9618988-8.0015106,14.9618988S84,149.1963043,85,139.1963043V99.1962967
		c-1-10,2.10009-14.6869965,8-14.6869965c5.8998871,0,9.0097885,4.6869965,8.0097885,14.6869965L101,139.1963043z"/>
	<path id="y_2_" d="M45,114.1962967v55.0000076H25v-55.0000076c0,0-20.7246094-67.4311981-25-80h21l14.0346909,52.6752968
		L49,34.1963005h21L45,114.1962967z"/>
</g>
<g id="Tube">
	<path id="e_1_" fill="#FFFFFF" d="M476.0351868,122.1962967l-0.0039062-20.4433975
		c0-10.6800995-2.1036072-18.4925995-5.8887024-23.5473022c-5.0741882-6.8378983-12.2832031-10.4570999-21.3652954-10.4570999
		c-9.2420959,0-16.4511108,3.6192017-21.6875,10.4570999C423.2440796,83.2602997,421,91.516098,421,102.1962967v35.0000076
		c0,10.6190948,2.4667664,18.0526886,6.3124695,23.0526886c5.2344055,6.8282013,12.4434204,10.2364044,21.9141235,10.2364044
		c9.4588928,0,16.8885803-3.5762024,21.8963928-10.8320923c2.2012024-3.2031097,3.6231079-6.8339996,4.2344055-10.8476105
		C475.5194702,146.9931946,476,142.8643036,476,137.030304v-2.8339996h-18.9989929
		c0,7.2637024,0.0321655,11.5820007-0.1358337,12.5683899c-1.0331726,4.8398132-3.6307983,7.2636108-8.0878906,7.2636108
		c-6.2148132,0-8.8398132-4.6464996-8.7772827-13.8740082v-17.9580002H476.0351868z M440,96.1548004
		c0-9.3457031,2.5624695-11.8945007,8.609375-11.8945007c6.0018921,0,8.390625,2.7768021,8.390625,12.0195007v10.9164963
		l-17,0.0186005V96.1548004z"/>
	<path id="b_1_" fill="#FFFFFF" d="M392.1073914,67.5923004c-6.6600952,0-13.280304,4.096199-19.1278992,11.2914963L373,35.1963005
		h-18v134h18l0.0253906-10.0684052c6.0487976,7.4844055,12.6445007,11.3574982,19.0820007,11.3574982
		c7.2089844,0,12.4766235-3.8593903,14.8926086-11.289093c1.2090149-4.2362976,2-10.7577972,2-20V99.1962967
		c0-9.4652939-1.2129211-15.935997-2.4219055-19.9555969C404.1620789,71.7564011,399.3163757,67.5923004,392.1073914,67.5923004z
		 M390,140.1963043c0,10-2.3574219,13.8320007-7.578125,13.8320007c-2.9804993,0-6.4151001-1.5341034-9.4423828-4.5615082
		L373,88.8212967c3.0272827-2.9882965,6.4413757-4.560997,9.421875-4.560997c5.2207031,0,7.578125,2.935997,7.578125,12.935997
		V140.1963043z"/>
	<path id="u_1_" fill="#FFFFFF" d="M340,169.1963043h-19v-11c-7.203125,8.2558899-13.3086243,12.4257965-19.9648132,12.4257965
		c-5.8399048,0-9.8955994-2.7548981-11.9258118-7.7324066C287.875,159.8632965,287,155.1376953,287,148.1963043V69.1962967h19
		v74.0000076c0,4.2422028,0,6,0,7c0.4433899,2.8065948,1.6347961,3.8320007,4.0507812,3.8320007
		c3.6366882,0,6.9277039-3.1601105,10.9492188-8.8320007V69.1962967h19V169.1963043z"/>
	<polygon id="T" fill="#FFFFFF" points="268,169.1963043 248,169.1963043 248,54.1963005 227,54.1963005 227,35.2173004 
		290,35.1963005 290,54.1963005 268,54.1963005 	"/>
</g>
</svg>
