<?xml version="1.0" encoding="utf-8"?>
<!-- Generator: Adobe Illustrator 16.0.0, SVG Export Plug-In . SVG Version: 6.00 Build 0)  -->
<!DOCTYPE svg PUBLIC "-//W3C//DTD SVG 1.1//EN" "http://www.w3.org/Graphics/SVG/1.1/DTD/svg11.dtd">
<svg version="1.1" id="Layer_1" xmlns="http://www.w3.org/2000/svg" xmlns:xlink="http://www.w3.org/1999/xlink" x="0px" y="0px"
	 width="52px" height="52px" viewBox="0 0 52 52" enable-background="new 0 0 52 52" xml:space="preserve">
<circle fill="#B764D8" cx="26" cy="26" r="25.043"/>
<path fill-rule="evenodd" clip-rule="evenodd" d="M43.077,33.807c-0.021,0.048-0.048,0.092-0.059,0.141
	c-0.323,1.479-1.523,2.454-3.035,2.455c-4.116,0.002-8.232,0.003-12.349-0.004c-0.25,0-0.426,0.068-0.605,0.248
	c-2.141,2.155-4.295,4.301-6.441,6.452c-0.287,0.289-0.605,0.461-1.018,0.377c-0.503-0.103-0.811-0.506-0.812-1.059
	c-0.002-1.878-0.001-3.757-0.001-5.636c0-0.113,0-0.228,0-0.378c-0.136,0-0.248,0-0.361,0c-1.541,0-3.081,0.002-4.622,0
	c-1.798-0.005-3.122-1.324-3.123-3.119c-0.002-5.666-0.001-11.333,0-17c0-1.881,1.305-3.186,3.181-3.187
	c8.717,0,17.435-0.001,26.151,0c1.506,0,2.712,0.978,3.035,2.456c0.011,0.048,0.037,0.094,0.059,0.142
	C43.077,21.731,43.077,27.77,43.077,33.807z M20.793,40.007c0.122-0.113,0.206-0.187,0.284-0.265
	c1.716-1.715,3.434-3.431,5.146-5.152c0.152-0.153,0.302-0.218,0.522-0.218c4.38,0.007,8.759,0.005,13.14,0.004
	c0.758,0,1.164-0.397,1.164-1.14c0.001-5.658,0.001-11.315,0-16.972c0-0.735-0.402-1.14-1.133-1.14c-8.706,0-17.414,0-26.12,0.001
	c-0.711,0-1.118,0.407-1.118,1.121c-0.001,5.655-0.002,11.313-0.001,16.97c0,0.761,0.39,1.158,1.143,1.158
	c2.206,0.003,4.412,0.002,6.618,0.002c0.11,0,0.221,0,0.354,0C20.793,36.267,20.793,38.107,20.793,40.007z"/>
<path fill-rule="evenodd" clip-rule="evenodd" fill="#FFFFFF" d="M20.793,40.007c0-1.899,0-3.74,0-5.631c-0.134,0-0.244,0-0.354,0
	c-2.206,0-4.412,0.001-6.618-0.002c-0.753,0-1.143-0.397-1.143-1.158c-0.001-5.657,0-11.314,0.001-16.97
	c0-0.714,0.406-1.121,1.118-1.121c8.707-0.001,17.414-0.001,26.12-0.001c0.73,0,1.133,0.405,1.133,1.14
	c0.001,5.657,0.001,11.314,0,16.972c0,0.742-0.406,1.14-1.164,1.14c-4.381,0.001-8.76,0.003-13.14-0.004
	c-0.22,0-0.37,0.064-0.522,0.218c-1.712,1.722-3.43,3.438-5.146,5.152C20.999,39.82,20.915,39.894,20.793,40.007z M26.868,20.19
	C26.868,20.191,26.868,20.191,26.868,20.19c2.415,0,4.83,0.001,7.246,0c0.96,0,1.919,0.005,2.88-0.004
	c0.536-0.004,0.957-0.393,1.011-0.903c0.055-0.511-0.29-0.99-0.799-1.097c-0.122-0.026-0.252-0.022-0.378-0.022
	c-5.675-0.002-11.35-0.002-17.024-0.002c-1.023,0-2.047-0.005-3.07,0.003c-0.536,0.004-0.958,0.393-1.012,0.903
	c-0.054,0.511,0.291,0.991,0.8,1.097c0.132,0.028,0.272,0.023,0.409,0.023C20.243,20.19,23.555,20.19,26.868,20.19z M26.857,22.217
	C26.857,22.216,26.857,22.216,26.857,22.217c-1.994-0.001-3.986-0.001-5.98-0.001c-1.382,0-2.764-0.004-4.146,0.003
	c-0.549,0.003-0.975,0.413-1.012,0.938c-0.036,0.514,0.323,0.98,0.834,1.07c0.134,0.023,0.273,0.016,0.411,0.016
	c5.221,0.001,10.443,0.001,15.664,0.001c1.445,0,2.891,0.002,4.335-0.002c0.559-0.001,0.987-0.386,1.042-0.908
	c0.052-0.499-0.276-0.97-0.771-1.086c-0.142-0.033-0.294-0.029-0.439-0.029C33.481,22.217,30.17,22.217,26.857,22.217z
	 M21.798,28.297c1.655,0,3.311,0.001,4.966,0c0.664-0.002,1.122-0.429,1.113-1.029c-0.01-0.586-0.467-0.998-1.114-0.998
	c-3.301,0-6.601,0-9.9,0c-0.115,0-0.234,0-0.346,0.026c-0.512,0.114-0.852,0.589-0.794,1.099c0.059,0.522,0.486,0.898,1.047,0.9
	C18.446,28.299,20.122,28.297,21.798,28.297z"/>
<path fill-rule="evenodd" clip-rule="evenodd" d="M26.868,20.19c-3.313,0-6.625,0-9.938-0.001c-0.137,0-0.277,0.005-0.409-0.023
	c-0.509-0.105-0.854-0.585-0.8-1.097c0.054-0.511,0.476-0.899,1.012-0.903c1.023-0.008,2.047-0.003,3.07-0.003
	c5.674,0,11.35,0,17.024,0.002c0.126,0,0.256-0.004,0.378,0.022c0.509,0.106,0.854,0.585,0.799,1.097
	c-0.054,0.511-0.475,0.899-1.011,0.903c-0.961,0.009-1.92,0.004-2.88,0.004C31.698,20.192,29.283,20.191,26.868,20.19
	C26.868,20.191,26.868,20.191,26.868,20.19z"/>
<path fill-rule="evenodd" clip-rule="evenodd" d="M26.857,22.217c3.313,0,6.624,0,9.938,0.001c0.146,0,0.298-0.003,0.439,0.029
	c0.495,0.116,0.823,0.588,0.771,1.086c-0.055,0.522-0.483,0.906-1.042,0.908c-1.444,0.005-2.89,0.002-4.335,0.002
	c-5.221,0-10.443,0-15.664-0.001c-0.137,0-0.276,0.007-0.411-0.016c-0.511-0.089-0.871-0.556-0.834-1.07
	c0.037-0.524,0.462-0.934,1.012-0.938c1.381-0.007,2.764-0.003,4.146-0.003C22.871,22.216,24.863,22.216,26.857,22.217
	C26.857,22.216,26.857,22.216,26.857,22.217z"/>
</svg>
