<svg id="Layer_1" data-name="Layer 1" xmlns="http://www.w3.org/2000/svg" xmlns:xlink="http://www.w3.org/1999/xlink" width="28.17" height="17.55" viewBox="0 0 28.17 17.55">
  <defs>
    <style>
      .cls-1 {
        fill: none;
      }

      .cls-2 {
        clip-path: url(#clip-path);
      }

      .cls-3 {
        fill: #09ebaf;
      }

      .cls-4 {
        fill: #383f82;
        stroke: #383f82;
        stroke-miterlimit: 10;
        stroke-width: 0.5px;
      }
    </style>
    <clipPath id="clip-path" transform="translate(-0.91 -6.22)">
      <rect class="cls-1" width="30" height="30"/>
    </clipPath>
  </defs>
  <title>community-forum</title>
  <g class="cls-2">
    <g>
      <polygon class="cls-3" points="13.24 0.71 14.72 0.99 16.75 1.54 18.04 3.57 18.22 6.98 17.95 8.54 17.21 9.84 16.38 11.13 16.47 11.86 18.22 12.69 21.63 14.07 22.92 15.09 22.92 16.1 21.54 16.56 17.02 17.02 10.3 17.02 6.33 16.56 5.32 15.73 5.96 14.17 9.28 12.88 11.49 12.23 11.77 11.4 11.31 10.3 10.3 8.64 9.74 7.16 9.56 5.78 9.84 4.95 10.48 2.74 11.59 1.17 13.24 0.71"/>
      <path class="cls-4" d="M18.21,18a1,1,0,0,0-.46-.09,4.18,4.18,0,0,1,.46-.83l.09-.09A3,3,0,0,0,19,15.51a1.17,1.17,0,0,1,.37-.65,3.59,3.59,0,0,0,.55-2.49.29.29,0,0,0-.09-.18c0-.09-.18-.37-.18-.46a5.47,5.47,0,0,0-.28-2.49,4.15,4.15,0,0,0-2.49-2.49,5.15,5.15,0,0,0-1.94-.28A5.15,5.15,0,0,0,13,6.75a4.15,4.15,0,0,0-2.49,2.49,7.12,7.12,0,0,0-.28,2.49,4,4,0,0,1-.09.46,3.17,3.17,0,0,0,.55,2.49,2.31,2.31,0,0,1,.37.65,3.12,3.12,0,0,0,.65,1.47l.09.09a4.18,4.18,0,0,1,.46.83,4,4,0,0,1-.46.09c-2.4.74-4.79,1.47-5.62,2.49a1.49,1.49,0,0,0-.37,1.57,2,2,0,0,0,1.57,1.2,36.45,36.45,0,0,0,7.74.46,44.5,44.5,0,0,0,7.74-.46,2,2,0,0,0,1.57-1.2A1.65,1.65,0,0,0,24,20.3C23.1,19.47,20.7,18.73,18.21,18Zm5,3.69a.93.93,0,0,1-.74.46A40.48,40.48,0,0,1,15,22.6a40.48,40.48,0,0,1-7.47-.46c-.46-.09-.74-.28-.74-.46s.09-.37.18-.46c.74-.83,3.87-1.75,5.07-2.12.46-.09.65-.18.74-.18a.83.83,0,0,0,.55-.55,2.46,2.46,0,0,0-.65-1.94l-.09-.09a2.84,2.84,0,0,1-.46-1.11,3,3,0,0,0-.65-1.2,2.2,2.2,0,0,1-.28-1.38h0a2.67,2.67,0,0,0,.28-1,4.92,4.92,0,0,1,.18-2,3,3,0,0,1,1.75-1.75A3.33,3.33,0,0,1,15,7.58a4.83,4.83,0,0,1,1.57.18,2.76,2.76,0,0,1,1.75,1.75,4.92,4.92,0,0,1,.18,2,2.24,2.24,0,0,0,.28,1h0a2.44,2.44,0,0,1-.28,1.29,3,3,0,0,0-.65,1.2,2.84,2.84,0,0,1-.46,1.11l-.09.09a2.46,2.46,0,0,0-.65,1.94.83.83,0,0,0,.55.55c.09,0,.28.09.74.18,1.2.37,4.33,1.29,5.07,2.12C23.1,21.31,23.28,21.5,23.19,21.68Zm5.25-2.3C27.8,18.64,26,18,24.11,17.44c-.09,0-.09,0-.18-.09a1.5,1.5,0,0,0,.28-.55v-.09a3.62,3.62,0,0,0,.55-1.2.7.7,0,0,1,.18-.37,2.79,2.79,0,0,0,.46-2,.09.09,0,0,0-.09-.09.71.71,0,0,1-.09-.28A4.63,4.63,0,0,0,25,10.81,3.34,3.34,0,0,0,23.1,8.87a5.07,5.07,0,0,0-1.47-.28h-.74a.56.56,0,1,0,.18,1.11h.55a2.34,2.34,0,0,1,1.11.18A2.36,2.36,0,0,1,24,11.08a3.82,3.82,0,0,1,.18,1.47,1.84,1.84,0,0,0,.18.83,3.27,3.27,0,0,1-.18.92,1.72,1.72,0,0,0-.46.92,1.66,1.66,0,0,1-.37.83l-.09.09c-.37.55-.65,1.11-.46,1.57a.94.94,0,0,0,.46.55c.09,0,.18.09.55.18.83.28,3.23.92,3.78,1.57a.34.34,0,0,1,.09.28c0,.09-.18.18-.46.28a5.58,5.58,0,0,1-1.38.18.62.62,0,0,0-.55.65.59.59,0,0,0,.55.55H26a7.91,7.91,0,0,0,1.57-.28,1.87,1.87,0,0,0,1.29-1A1.75,1.75,0,0,0,28.44,19.38ZM4.2,20.85c-.55-.09-1-.09-1.38-.18s-.46-.18-.46-.28a.34.34,0,0,1,.09-.28c.55-.65,2.95-1.29,3.78-1.57.37-.09.46-.18.55-.18.28-.09.37-.28.46-.55.18-.46-.18-1-.55-1.57v-.09a1.66,1.66,0,0,1-.37-.83,4.31,4.31,0,0,0-.46-.92c-.09-.18-.28-.74-.18-.92a1.12,1.12,0,0,0,.18-.83A3.82,3.82,0,0,1,6,11.18,1.88,1.88,0,0,1,7.34,10a2.34,2.34,0,0,1,1.11-.18H9c.28,0,.65-.18.65-.46s-.18-.65-.46-.65H8.44A3,3,0,0,0,7,9,3.34,3.34,0,0,0,5,10.9a4.34,4.34,0,0,0-.18,1.94.71.71,0,0,1-.09.28.09.09,0,0,1-.09.09,2.42,2.42,0,0,0,.46,2,.7.7,0,0,1,.18.37,1.75,1.75,0,0,0,.46,1.2v.09a.84.84,0,0,1,.28.46c-.09,0-.09,0-.18.09C4,18,2.18,18.64,1.53,19.38a1.29,1.29,0,0,0-.28,1.38,1.87,1.87,0,0,0,1.29,1c.46.09.92.18,1.57.28H4.2a.53.53,0,0,0,.55-.55A.62.62,0,0,0,4.2,20.85Z" transform="translate(-0.91 -6.22)"/>
    </g>
  </g>
</svg>
