<svg id="Layer_1" data-name="Layer 1" xmlns="http://www.w3.org/2000/svg" width="50.09" height="50.09" viewBox="0 0 50.09 50.09">
  <defs>
    <style>
      .cls-1 {
        fill: #09ebaf;
      }

      .cls-2 {
        fill: #fff;
      }
    </style>
  </defs>
  <title>feature</title>
  <circle class="cls-1" cx="25.04" cy="25.04" r="25.04"/>
  <path d="M40.91,14.76a1.13,1.13,0,0,1-1.23.76H21a.93.93,0,1,1,0-1.84H39.86a1,1,0,0,1,1.05.75Z" transform="translate(-0.96 -0.96)"/>
  <path d="M40.91,22.68a1.13,1.13,0,0,1-1.23.76q-9.29,0-18.58,0h-.17a.92.92,0,1,1,0-1.84h5.56c4.4,0,8.8,0,13.19,0a1.13,1.13,0,0,1,1.23.76C40.91,22.45,40.91,22.56,40.91,22.68Z" transform="translate(-0.96 -0.96)"/>
  <path d="M40.91,30.37a1.13,1.13,0,0,1-1.22.75H21.08a1.58,1.58,0,0,1-.59-.1A.89.89,0,0,1,20,30a.93.93,0,0,1,.94-.76h3.82c5,0,10,0,15,0a1.13,1.13,0,0,1,1.23.76C40.91,30.14,40.91,30.25,40.91,30.37Z" transform="translate(-0.96 -0.96)"/>
  <path d="M40.91,38.06a1.13,1.13,0,0,1-1.23.76q-9.34,0-18.7,0A.93.93,0,1,1,21,37H39.86a1,1,0,0,1,1.05.75Z" transform="translate(-0.96 -0.96)"/>
  <path class="cls-2" d="M11.09,13.77l1.78-.28a.73.73,0,0,0,.62-.45c.22-.49.45-1,.68-1.45,0-.09.1-.18.18-.31.08.14.14.22.18.31.23.48.46,1,.68,1.45a.72.72,0,0,0,.63.45c.52.07,1,.15,1.55.23a1.9,1.9,0,0,1,.25.09c-.1.12-.17.21-.24.29-.34.36-.68.72-1,1.06a.83.83,0,0,0-.25.82c.09.51.18,1,.26,1.55a2.47,2.47,0,0,1,0,.34l-.31-.14c-.45-.25-.9-.49-1.35-.75A.68.68,0,0,0,14,17l-1.63.9a1.77,1.77,0,0,1,0-.34c.08-.52.16-1,.26-1.55a.85.85,0,0,0-.26-.84c-.43-.41-.83-.84-1.25-1.26C11.09,13.85,11.09,13.81,11.09,13.77Z" transform="translate(-0.96 -0.96)"/>
  <path class="cls-2" d="M11.09,37.07c.59-.1,1.18-.2,1.77-.28a.73.73,0,0,0,.62-.45c.22-.49.45-1,.68-1.44,0-.09.1-.18.18-.31.08.14.14.22.18.31.23.49.47,1,.69,1.47a.71.71,0,0,0,.61.42c.52.07,1,.15,1.55.24a2,2,0,0,1,.26.08c-.09.11-.15.19-.22.27-.36.37-.71.74-1.08,1.1a.8.8,0,0,0-.24.77c.09.52.18,1,.26,1.57a1.39,1.39,0,0,1,0,.34h-.12c-.57-.32-1.14-.65-1.71-1a.37.37,0,0,0-.31,0c-.57.31-1.14.64-1.71,1h-.17c.09-.62.18-1.24.28-1.86a.87.87,0,0,0-.26-.84c-.43-.41-.83-.84-1.24-1.26Z" transform="translate(-0.96 -0.96)"/>
  <path class="cls-2" d="M11.09,29.32c.53-.09,1.06-.22,1.6-.27a1,1,0,0,0,.89-.66c.17-.44.4-.86.6-1.29,0-.08.09-.16.17-.29.08.15.14.23.18.32.22.45.44.9.64,1.37a.83.83,0,0,0,.75.54c.47.06.94.14,1.41.21l.32.08c-.1.12-.16.2-.23.28-.34.35-.68.72-1,1.06a.86.86,0,0,0-.27.86c.1.5.17,1,.26,1.52a2.49,2.49,0,0,1,0,.33,3.46,3.46,0,0,1-.34-.14c-.44-.23-.87-.47-1.3-.72a.7.7,0,0,0-.77,0c-.44.25-.88.49-1.32.73-.09,0-.19.08-.35.14.06-.41.11-.75.16-1.09s.09-.56.14-.83a.79.79,0,0,0-.24-.76c-.43-.42-.85-.85-1.27-1.27C11.09,29.4,11.09,29.36,11.09,29.32Z" transform="translate(-0.96 -0.96)"/>
  <path class="cls-2" d="M11.09,21.57c.49-.09,1-.23,1.48-.27a1.08,1.08,0,0,0,1.06-.77,11.53,11.53,0,0,1,.55-1.18c0-.08.09-.16.17-.29.09.14.14.22.19.31.23.47.45.94.67,1.42a.71.71,0,0,0,.61.46c.5.06,1,.15,1.49.23a3.17,3.17,0,0,1,.34.1c-.11.13-.17.21-.25.29-.34.35-.68.72-1,1.06a.83.83,0,0,0-.25.82c.09.51.18,1,.26,1.55a2.32,2.32,0,0,1,0,.33c-.13-.05-.22-.08-.31-.13l-1.35-.74a.67.67,0,0,0-.71,0l-1.35.74c-.09,0-.19.08-.35.15.06-.39.1-.71.15-1s.1-.59.15-.89a.78.78,0,0,0-.23-.77c-.43-.41-.85-.84-1.28-1.26Z" transform="translate(-0.96 -0.96)"/>
</svg>
