<svg id="Layer_1" data-name="Layer 1" xmlns="http://www.w3.org/2000/svg" xmlns:xlink="http://www.w3.org/1999/xlink" width="23.69" height="21.48" viewBox="0 0 23.69 21.48">
  <defs>
    <style>
      .cls-1 {
        fill: none;
      }

      .cls-2 {
        clip-path: url(#clip-path);
      }

      .cls-3 {
        fill: #09ebaf;
      }

      .cls-4 {
        fill: #383f82;
      }
    </style>
    <clipPath id="clip-path" transform="translate(-3.15 -4.26)">
      <rect class="cls-1" width="30" height="30"/>
    </clipPath>
  </defs>
  <title>knowledge-base</title>
  <g class="cls-2">
    <g>
      <polygon class="cls-3" points="11.85 4.58 14.21 3.4 16.35 1.82 21.56 1.11 22.82 1.11 22.51 8.05 22.82 14.53 22.82 19.11 17.37 19.74 12.95 20.53 11.85 20.53 11.85 4.58"/>
      <path class="cls-4" d="M25.82,4.26c-.32,0-6.87.08-10.82,3.24C11,4.26,4.42,4.26,4.18,4.26h-1V24.32h1A29.06,29.06,0,0,1,14,25.74H16a28.64,28.64,0,0,1,9.79-1.42h1V4.26ZM14,23.69a29.36,29.36,0,0,0-8.84-1.34v-16c2,.16,6.32.71,8.84,3Zm10.9-1.34A29.84,29.84,0,0,0,16,23.69V9.31c2.53-2.29,6.87-2.84,8.84-3Z" transform="translate(-3.15 -4.26)"/>
    </g>
  </g>
</svg>
