<svg id="Layer_1" data-name="Layer 1" xmlns="http://www.w3.org/2000/svg" width="50.49" height="50.49" viewBox="0 0 50.49 50.49">
  <defs>
    <style>
      .cls-1 {
        fill: #feb155;
      }

      .cls-2 {
        fill: #fff;
      }
    </style>
  </defs>
  <title>our-customer</title>
  <circle class="cls-1" cx="25.25" cy="25.25" r="25.25"/>
  <path d="M11.29,35c.09-.59.15-1.19.3-1.78a11.78,11.78,0,0,1,7.1-8.44l.31-.13a6.62,6.62,0,0,1-1.43-1.91,6.23,6.23,0,0,1,4.78-8.87,6.13,6.13,0,0,1,3.64.57.44.44,0,0,0,.45,0,6.22,6.22,0,0,1,9,4.85,6.06,6.06,0,0,1-1.72,5,3.11,3.11,0,0,1-.31.25l.59.26a11.82,11.82,0,0,1,7.09,9.63l.07.52v.76H11.29ZM14,33.34H32.38a9.49,9.49,0,0,0-18.34,0ZM19.36,20a3.84,3.84,0,1,0,3.84-3.83h0A3.84,3.84,0,0,0,19.38,20Zm8.86,3.68a3.78,3.78,0,0,0,4.15-1.47,3.84,3.84,0,0,0-.11-4.58,3.74,3.74,0,0,0-4-1.35,6.26,6.26,0,0,1,0,7.37Zm10.17,9.61a9.47,9.47,0,0,0-7.87-7,12,12,0,0,1,4.35,7Z" transform="translate(-0.74 -0.3)"/>
  <path class="cls-2" d="M28.22,23.73a6.26,6.26,0,0,0,0-7.37,3.74,3.74,0,0,1,4,1.35,3.84,3.84,0,0,1,.11,4.58A3.78,3.78,0,0,1,28.22,23.73Z" transform="translate(-0.74 -0.3)"/>
  <path class="cls-2" d="M38.39,33.34H34.87a12,12,0,0,0-4.35-6.95A9.47,9.47,0,0,1,38.39,33.34Z" transform="translate(-0.74 -0.3)"/>
</svg>
