<svg id="Layer_1" data-name="Layer 1" xmlns="http://www.w3.org/2000/svg" xmlns:xlink="http://www.w3.org/1999/xlink" width="26.8" height="25.14" viewBox="0 0 26.8 25.14">
  <defs>
    <style>
      .cls-1, .cls-4, .cls-5, .cls-6, .cls-7 {
        fill: none;
      }

      .cls-2 {
        clip-path: url(#clip-path);
      }

      .cls-3 {
        fill: #09ebaf;
      }

      .cls-4, .cls-7 {
        stroke: #383f82;
      }

      .cls-4, .cls-6, .cls-7 {
        stroke-linecap: round;
        stroke-linejoin: round;
      }

      .cls-4 {
        stroke-width: 2.5px;
      }

      .cls-5, .cls-6 {
        stroke: #fff;
      }

      .cls-5 {
        stroke-miterlimit: 22.93;
      }

      .cls-7 {
        stroke-width: 3px;
      }
    </style>
    <clipPath id="clip-path" transform="translate(-1.6 -2.55)">
      <rect class="cls-1" width="30" height="30"/>
    </clipPath>
  </defs>
  <title>platform</title>
  <g class="cls-2">
    <g>
      <rect class="cls-3" x="1.25" y="1.25" width="24.22" height="17.27"/>
      <path class="cls-4" d="M27.15,3.8H2.85V21.08H27.07V3.8Z" transform="translate(-1.6 -2.55)"/>
      <g>
        <path class="cls-5" d="M8.14,13a1.37,1.37,0,1,0,1.37,1.37A1.37,1.37,0,0,0,8.14,13ZM12.72,8.4a1.37,1.37,0,1,0,1.37,1.37A1.37,1.37,0,0,0,12.72,8.4Zm4.57,4.19A1.37,1.37,0,1,0,18.66,14a1.37,1.37,0,0,0-1.37-1.37Zm4.57-2.13a1.37,1.37,0,1,0,1.37,1.37,1.32,1.32,0,0,0-1.37-1.37Z" transform="translate(-1.6 -2.55)"/>
        <line class="cls-6" x1="7.77" y1="10.64" x2="9.97" y2="8.51"/>
        <line class="cls-6" x1="12.34" y1="8.36" x2="14.55" y2="10.42"/>
        <line class="cls-6" x1="17.06" y1="10.8" x2="18.73" y2="10.03"/>
      </g>
      <line class="cls-7" x1="7.59" y1="23.64" x2="19.22" y2="23.64"/>
      <line class="cls-4" x1="10.02" y1="23.64" x2="10.02" y2="19.65"/>
      <line class="cls-4" x1="16.79" y1="23.64" x2="16.79" y2="19.65"/>
    </g>
  </g>
</svg>
