<svg id="Layer_1" data-name="Layer 1" xmlns="http://www.w3.org/2000/svg" width="50.09" height="50.09" viewBox="0 0 50.09 50.09">
  <defs>
    <style>
      .cls-1 {
        fill: #2e39bf;
      }

      .cls-2 {
        fill: none;
        stroke: #fff;
        stroke-miterlimit: 10;
        stroke-width: 2.5px;
      }

      .cls-3 {
        fill: #fff;
      }
    </style>
  </defs>
  <title>pricing</title>
  <circle class="cls-1" cx="25.04" cy="25.04" r="25.04"/>
  <path class="cls-2" d="M7.22,26.54A18.78,18.78,0,1,1,26,45.34,18.81,18.81,0,0,1,7.22,26.54Z" transform="translate(-0.96 -0.96)"/>
  <path class="cls-3" d="M24.79,18.59l-.44-3.3h3.08L27,18.55c.69.11,1.34.17,2,.33s1.51.43,2.25.69c.14,0,.33.25.32.37-.07,1-.17,2-.26,3C30.08,22.48,29,22,27.8,21.71a6.91,6.91,0,0,0-3.65,0c-.55.15-1,.41-1.11,1.06a1.22,1.22,0,0,0,.85,1.28c.9.37,1.82.67,2.75,1a14.15,14.15,0,0,1,4,1.58,4.11,4.11,0,0,1-.41,7.16,8.93,8.93,0,0,1-1.68.6c-.49.14-1,.19-1.55.29l.44,3.18H24.34l.44-3.14c-.8-.11-1.58-.17-2.34-.34a25,25,0,0,1-2.4-.72c-.12,0-.3-.23-.28-.34.13-1.13.29-2.26.46-3.47a7.31,7.31,0,0,0,4.08,1.68,16.34,16.34,0,0,0,3-.06,1.34,1.34,0,0,0,1.33-1.09,1.41,1.41,0,0,0-.83-1.61,27.92,27.92,0,0,0-2.6-1.06c-.88-.33-1.78-.6-2.66-.92a6.23,6.23,0,0,1-1-.47,3.71,3.71,0,0,1-.77-6.09,6.14,6.14,0,0,1,3.49-1.57Z" transform="translate(-0.96 -0.96)"/>
</svg>
