<?xml version="1.0" encoding="UTF-8"?>
<svg width="38px" height="24px" viewBox="0 0 38 24" version="1.1" xmlns="http://www.w3.org/2000/svg" xmlns:xlink="http://www.w3.org/1999/xlink">
    <!-- Generator: Sketch 47.1 (45422) - http://www.bohemiancoding.com/sketch -->
    <title>3-Ways_Allies@2x</title>
    <desc>Created with Sketch.</desc>
    <defs>
        <radialGradient cx="8.53872329%" cy="-38.379229%" fx="8.53872329%" fy="-38.379229%" r="176.481775%" gradientTransform="translate(0.085387,-0.383792),scale(0.632653,1.000000),rotate(48.436193),translate(-0.085387,0.383792)" id="radialGradient-1">
            <stop stop-color="#9761FA" offset="0%"></stop>
            <stop stop-color="#F71C7A" offset="100%"></stop>
        </radialGradient>
    </defs>
    <g id="User-Dashboard" stroke="none" stroke-width="1" fill="none" fill-rule="evenodd">
        <g id="3-Ways-to-Get-Started---Teen-Copy-2" transform="translate(-288.000000, -1242.000000)" fill="url(#radialGradient-1)">
            <g id="3-Ways_Allies" transform="translate(287.000000, 1234.000000)">
                <path d="M26.7238422,18.328841 C29.5142367,18.328841 31.7499142,16.0894879 31.7499142,13.3153639 C31.7499142,10.5412399 29.5142367,8.30188679 26.7238422,8.30188679 C23.9334477,8.30188679 21.6809605,10.5412399 21.6809605,13.3153639 C21.6809605,16.0894879 23.9334477,18.328841 26.7238422,18.328841 L26.7238422,18.328841 Z M13.2761578,18.328841 C16.0665523,18.328841 18.3022298,16.0894879 18.3022298,13.3153639 C18.3022298,10.5412399 16.0665523,8.30188679 13.2761578,8.30188679 C10.4857633,8.30188679 8.23327616,10.5412399 8.23327616,13.3153639 C8.23327616,16.0894879 10.4857633,18.328841 13.2761578,18.328841 L13.2761578,18.328841 Z M13.2761578,21.671159 C9.35951973,21.671159 1.50943396,23.6264151 1.50943396,27.5202156 L1.50943396,31.6981132 L25.0428816,31.6981132 L25.0428816,27.5202156 C25.0428816,23.6264151 17.1927959,21.671159 13.2761578,21.671159 L13.2761578,21.671159 Z M26.7238422,21.671159 C26.2363636,21.671159 25.6816467,21.7045822 25.0933105,21.754717 C27.0432247,23.1584906 28.4048027,25.0469003 28.4048027,27.5202156 L28.4048027,31.6981132 L38.490566,31.6981132 L38.490566,27.5202156 C38.490566,23.6264151 30.6404803,21.671159 26.7238422,21.671159 L26.7238422,21.671159 Z" id="Shape"></path>
            </g>
        </g>
    </g>
</svg>