<?xml version="1.0" encoding="UTF-8"?>
<svg width="34px" height="34px" viewBox="0 0 34 34" version="1.1" xmlns="http://www.w3.org/2000/svg" xmlns:xlink="http://www.w3.org/1999/xlink">
    <!-- Generator: Sketch 47.1 (45422) - http://www.bohemiancoding.com/sketch -->
    <title>3-Ways_Groups@2x</title>
    <desc>Created with Sketch.</desc>
    <defs>
        <radialGradient cx="8.53872329%" cy="-38.379229%" fx="8.53872329%" fy="-38.379229%" r="176.481775%" id="radialGradient-1">
            <stop stop-color="#9761FA" offset="0%"></stop>
            <stop stop-color="#F71C7A" offset="100%"></stop>
        </radialGradient>
    </defs>
    <g id="User-Dashboard" stroke="none" stroke-width="1" fill="none" fill-rule="evenodd">
        <g id="3-Ways_Groups" transform="translate(-3.000000, -3.000000)" fill="url(#radialGradient-1)">
            <path d="M20,3.33333333 C10.8,3.33333333 3.33333333,10.8 3.33333333,20 C3.33333333,29.2 10.8,36.6666667 20,36.6666667 C29.2,36.6666667 36.6666667,29.2 36.6666667,20 C36.6666667,10.8 29.2,3.33333333 20,3.33333333 L20,3.33333333 Z M13.3333333,29.1666667 C11.0333333,29.1666667 9.16666667,27.3 9.16666667,25 C9.16666667,22.7 11.0333333,20.8333333 13.3333333,20.8333333 C15.6333333,20.8333333 17.5,22.7 17.5,25 C17.5,27.3 15.6333333,29.1666667 13.3333333,29.1666667 L13.3333333,29.1666667 Z M15.8333333,13.3333333 C15.8333333,11.0333333 17.7,9.16666667 20,9.16666667 C22.3,9.16666667 24.1666667,11.0333333 24.1666667,13.3333333 C24.1666667,15.6333333 22.3,17.5 20,17.5 C17.7,17.5 15.8333333,15.6333333 15.8333333,13.3333333 L15.8333333,13.3333333 Z M26.6666667,29.1666667 C24.3666667,29.1666667 22.5,27.3 22.5,25 C22.5,22.7 24.3666667,20.8333333 26.6666667,20.8333333 C28.9666667,20.8333333 30.8333333,22.7 30.8333333,25 C30.8333333,27.3 28.9666667,29.1666667 26.6666667,29.1666667 L26.6666667,29.1666667 Z" id="Shape"></path>
        </g>
    </g>
</svg>