<?xml version="1.0" encoding="UTF-8"?>
<svg width="30px" height="34px" viewBox="0 0 30 34" version="1.1" xmlns="http://www.w3.org/2000/svg" xmlns:xlink="http://www.w3.org/1999/xlink">
    <!-- Generator: Sketch 47.1 (45422) - http://www.bohemiancoding.com/sketch -->
    <title>3-Ways_Inventory</title>
    <desc>Created with Sketch.</desc>
    <defs>
        <radialGradient cx="0%" cy="0%" fx="0%" fy="0%" r="164.034171%" gradientTransform="translate(0.000000,0.000000),scale(1.000000,0.900000),rotate(57.465845),translate(-0.000000,-0.000000)" id="radialGradient-1">
            <stop stop-color="#1D7ADC" offset="0%"></stop>
            <stop stop-color="#35D4D5" offset="100%"></stop>
        </radialGradient>
    </defs>
    <g id="User-Dashboard" stroke="none" stroke-width="1" fill="none" fill-rule="evenodd">
        <g id="3-Ways-to-Get-Started---Teen-Copy-2" transform="translate(-651.000000, -1612.000000)" fill="url(#radialGradient-1)">
            <g id="3-Ways_Inventory" transform="translate(646.000000, 1611.000000)">
                <g id="ic_assignment-copy">
                    <path d="M31.6666667,5 L24.7,5 C24,3.06666667 22.1666667,1.66666667 20,1.66666667 C17.8333333,1.66666667 16,3.06666667 15.3,5 L8.33333333,5 C6.5,5 5,6.5 5,8.33333333 L5,31.6666667 C5,33.5 6.5,35 8.33333333,35 L31.6666667,35 C33.5,35 35,33.5 35,31.6666667 L35,8.33333333 C35,6.5 33.5,5 31.6666667,5 L31.6666667,5 Z M20,5 C20.9166667,5 21.6666667,5.75 21.6666667,6.66666667 C21.6666667,7.58333333 20.9166667,8.33333333 20,8.33333333 C19.0833333,8.33333333 18.3333333,7.58333333 18.3333333,6.66666667 C18.3333333,5.75 19.0833333,5 20,5 L20,5 Z M23.3333333,28.3333333 L11.6666667,28.3333333 L11.6666667,25 L23.3333333,25 L23.3333333,28.3333333 L23.3333333,28.3333333 Z M28.3333333,21.6666667 L11.6666667,21.6666667 L11.6666667,18.3333333 L28.3333333,18.3333333 L28.3333333,21.6666667 L28.3333333,21.6666667 Z M28.3333333,15 L11.6666667,15 L11.6666667,11.6666667 L28.3333333,11.6666667 L28.3333333,15 L28.3333333,15 Z" id="Shape"></path>
                </g>
            </g>
        </g>
    </g>
</svg>