<?xml version="1.0" encoding="UTF-8" standalone="no"?>
<svg width="64px" height="64px" viewBox="0 0 54 54" version="1.1" xmlns="http://www.w3.org/2000/svg" xmlns:xlink="http://www.w3.org/1999/xlink">
    <!-- Generator: Sketch 43.2 (39069) - http://www.bohemiancoding.com/sketch -->
    <title>Play Button</title>
    <desc>Created with Sketch.</desc>
    <defs></defs>
    <g id="Landing-Page" stroke="none" stroke-width="1" fill="none" fill-rule="evenodd">
        <g id="Home" transform="translate(-693.000000, -447.000000)">
            <g id="Play-Button" transform="translate(693.000000, 447.000000)">
                <circle id="Oval" fill="#FFFFFF" cx="27" cy="27" r="27"></circle>
                <path d="M22.6,36.9 L35.8,27 L22.6,17.1 L22.6,36.9 L22.6,36.9 Z M27,5 C14.9,5 5,14.9 5,27 C5,39.1 14.9,49 27,49 C39.1,49 49,39.1 49,27 C49,14.9 39.1,5 27,5 L27,5 Z M27,44.6 C17.32,44.6 9.4,36.68 9.4,27 C9.4,17.32 17.32,9.4 27,9.4 C36.68,9.4 44.6,17.32 44.6,27 C44.6,36.68 36.68,44.6 27,44.6 L27,44.6 Z" id="Shape" fill="#25A9D9"></path>
            </g>
        </g>
    </g>
</svg>
